<?xml version="1.0" encoding="UTF-8" standalone="no"?>
<!DOCTYPE svg PUBLIC "-//W3C//DTD SVG 1.1//EN"
 "http://www.w3.org/Graphics/SVG/1.1/DTD/svg11.dtd">
<!-- Generated by graphviz version 2.36.0 (20140111.2315)
 -->
<!-- Title: G Pages: 1 -->
<svg width="566pt" height="302pt"
 viewBox="0.00 0.00 566.00 302.00" xmlns="http://www.w3.org/2000/svg" xmlns:xlink="http://www.w3.org/1999/xlink">
<g id="graph0" class="graph" transform="scale(1 1) rotate(0) translate(4 298)">
<title>G</title>
<polygon fill="white" stroke="none" points="-4,4 -4,-298 562,-298 562,4 -4,4"/>
<!-- 15 -->
<g id="node1" class="node"><title>15</title>
<ellipse fill="none" stroke="black" cx="27" cy="-276" rx="27" ry="18"/>
<text text-anchor="middle" x="27" y="-271.8" font-family="Times,serif" font-size="14.00">15</text>
</g>
<!-- 12 -->
<g id="node2" class="node"><title>12</title>
<ellipse fill="none" stroke="black" cx="27" cy="-190" rx="27" ry="18"/>
<text text-anchor="middle" x="27" y="-185.8" font-family="Times,serif" font-size="14.00">12</text>
</g>
<!-- 15&#45;&gt;12 -->
<g id="edge1" class="edge"><title>15&#45;&gt;12</title>
<path fill="none" stroke="black" d="M27,-257.595C27,-246.257 27,-231.227 27,-218.315"/>
<polygon fill="black" stroke="black" points="30.5001,-218.095 27,-208.095 23.5001,-218.095 30.5001,-218.095"/>
<text text-anchor="middle" x="34" y="-228.8" font-family="Times,serif" font-size="14.00">12</text>
</g>
<!-- 10 -->
<g id="node3" class="node"><title>10</title>
<ellipse fill="none" stroke="black" cx="27" cy="-104" rx="27" ry="18"/>
<text text-anchor="middle" x="27" y="-99.8" font-family="Times,serif" font-size="14.00">10</text>
</g>
<!-- 12&#45;&gt;10 -->
<g id="edge2" class="edge"><title>12&#45;&gt;10</title>
<path fill="none" stroke="black" d="M27,-171.595C27,-160.257 27,-145.227 27,-132.315"/>
<polygon fill="black" stroke="black" points="30.5001,-132.095 27,-122.095 23.5001,-132.095 30.5001,-132.095"/>
<text text-anchor="middle" x="34" y="-142.8" font-family="Times,serif" font-size="14.00">10</text>
</g>
<!-- 2 -->
<g id="node4" class="node"><title>2</title>
<ellipse fill="none" stroke="black" cx="27" cy="-18" rx="27" ry="18"/>
<text text-anchor="middle" x="27" y="-13.8" font-family="Times,serif" font-size="14.00">2</text>
</g>
<!-- 10&#45;&gt;2 -->
<g id="edge3" class="edge"><title>10&#45;&gt;2</title>
<path fill="none" stroke="black" d="M27,-85.5951C27,-74.2572 27,-59.2271 27,-46.3153"/>
<polygon fill="black" stroke="black" points="30.5001,-46.0951 27,-36.0952 23.5001,-46.0952 30.5001,-46.0951"/>
<text text-anchor="middle" x="30.5" y="-56.8" font-family="Times,serif" font-size="14.00">2</text>
</g>
<!-- 8 -->
<g id="node5" class="node"><title>8</title>
<ellipse fill="none" stroke="black" cx="99" cy="-276" rx="27" ry="18"/>
<text text-anchor="middle" x="99" y="-271.8" font-family="Times,serif" font-size="14.00">8</text>
</g>
<!-- 14 -->
<g id="node6" class="node"><title>14</title>
<ellipse fill="none" stroke="black" cx="171" cy="-276" rx="27" ry="18"/>
<text text-anchor="middle" x="171" y="-271.8" font-family="Times,serif" font-size="14.00">14</text>
</g>
<!-- 17 -->
<g id="node7" class="node"><title>17</title>
<ellipse fill="none" stroke="black" cx="243" cy="-276" rx="27" ry="18"/>
<text text-anchor="middle" x="243" y="-271.8" font-family="Times,serif" font-size="14.00">17</text>
</g>
<!-- 16 -->
<g id="node8" class="node"><title>16</title>
<ellipse fill="none" stroke="black" cx="243" cy="-190" rx="27" ry="18"/>
<text text-anchor="middle" x="243" y="-185.8" font-family="Times,serif" font-size="14.00">16</text>
</g>
<!-- 17&#45;&gt;16 -->
<g id="edge4" class="edge"><title>17&#45;&gt;16</title>
<path fill="none" stroke="black" d="M243,-257.595C243,-246.257 243,-231.227 243,-218.315"/>
<polygon fill="black" stroke="black" points="246.5,-218.095 243,-208.095 239.5,-218.095 246.5,-218.095"/>
<text text-anchor="middle" x="250" y="-228.8" font-family="Times,serif" font-size="14.00">16</text>
</g>
<!-- 19 -->
<g id="node9" class="node"><title>19</title>
<ellipse fill="none" stroke="black" cx="315" cy="-276" rx="27" ry="18"/>
<text text-anchor="middle" x="315" y="-271.8" font-family="Times,serif" font-size="14.00">19</text>
</g>
<!-- 18 -->
<g id="node10" class="node"><title>18</title>
<ellipse fill="none" stroke="black" cx="315" cy="-190" rx="27" ry="18"/>
<text text-anchor="middle" x="315" y="-185.8" font-family="Times,serif" font-size="14.00">18</text>
</g>
<!-- 19&#45;&gt;18 -->
<g id="edge5" class="edge"><title>19&#45;&gt;18</title>
<path fill="none" stroke="black" d="M315,-257.595C315,-246.257 315,-231.227 315,-218.315"/>
<polygon fill="black" stroke="black" points="318.5,-218.095 315,-208.095 311.5,-218.095 318.5,-218.095"/>
<text text-anchor="middle" x="322" y="-228.8" font-family="Times,serif" font-size="14.00">18</text>
</g>
<!-- 50 -->
<g id="node11" class="node"><title>50</title>
<ellipse fill="none" stroke="black" cx="387" cy="-276" rx="27" ry="18"/>
<text text-anchor="middle" x="387" y="-271.8" font-family="Times,serif" font-size="14.00">50</text>
</g>
<!-- 20 -->
<g id="node12" class="node"><title>20</title>
<ellipse fill="none" stroke="black" cx="387" cy="-190" rx="27" ry="18"/>
<text text-anchor="middle" x="387" y="-185.8" font-family="Times,serif" font-size="14.00">20</text>
</g>
<!-- 50&#45;&gt;20 -->
<g id="edge6" class="edge"><title>50&#45;&gt;20</title>
<path fill="none" stroke="black" d="M387,-257.595C387,-246.257 387,-231.227 387,-218.315"/>
<polygon fill="black" stroke="black" points="390.5,-218.095 387,-208.095 383.5,-218.095 390.5,-218.095"/>
<text text-anchor="middle" x="394" y="-228.8" font-family="Times,serif" font-size="14.00">20</text>
</g>
<!-- 60 -->
<g id="node13" class="node"><title>60</title>
<ellipse fill="none" stroke="black" cx="459" cy="-276" rx="27" ry="18"/>
<text text-anchor="middle" x="459" y="-271.8" font-family="Times,serif" font-size="14.00">60</text>
</g>
<!-- 70 -->
<g id="node14" class="node"><title>70</title>
<ellipse fill="none" stroke="black" cx="531" cy="-276" rx="27" ry="18"/>
<text text-anchor="middle" x="531" y="-271.8" font-family="Times,serif" font-size="14.00">70</text>
</g>
</g>
</svg>
